<?xml version="1.0" encoding="utf-8"?>
<!-- Generator: Adobe Illustrator 26.3.1, SVG Export Plug-In . SVG Version: 6.00 Build 0)  -->
<svg version="1.1" id="Layer_1" xmlns="http://www.w3.org/2000/svg" xmlns:xlink="http://www.w3.org/1999/xlink" x="0px" y="0px"
	 width="966px" height="239px" viewBox="0 0 966 239" enable-background="new 0 0 966 239" xml:space="preserve">
<rect x="426.886" y="23.896" fill="#FFFFFF" width="16.94" height="17.744"/>
<rect x="505.933" y="23.896" fill="#FFFFFF" width="16.938" height="17.744"/>
<path fill="#FFFFFF" d="M124.419,108.586l-29.036,54.042h57.267L124.419,108.586z M125.225,71.483l78.239,145.186h-20.97
	l-20.972-39.523H86.509l-21.777,39.523h-20.97L125.225,71.483z"/>
<path fill="#FFFFFF" d="M311.546,108.586l-29.036,54.042h57.267L311.546,108.586z M312.354,71.483l78.237,145.186h-20.97
	l-20.972-39.523h-75.013l-21.777,39.523h-20.97L312.354,71.483z"/>
<rect x="426.886" y="72.291" fill="#FFFFFF" width="17.746" height="144.378"/>
<rect x="505.933" y="72.291" fill="#FFFFFF" width="17.746" height="144.378"/>
<path fill="none" d="M562.633,50.921c0-24.365,0-39.433,0-40.79c-8.461,0-544.99,0-553.453,0c0,1.357,0,16.425,0,40.79H562.633z"/>
<path fill="none" d="M562.633,59.583H9.18c0,41.109,0,103.54,0,170.793h553.453C562.633,163.122,562.633,100.691,562.633,59.583z"/>
<path fill="#FFFFFF" d="M0.519,1.471v237.396H571.29V1.471H0.519z M562.633,10.132c0,1.357,0,16.425,0,40.79H9.18
	c0-24.365,0-39.433,0-40.79C17.643,10.132,554.172,10.132,562.633,10.132z M9.18,59.583h553.453c0,41.109,0,103.54,0,170.793H9.18
	C9.18,163.122,9.18,100.691,9.18,59.583z"/>
<path fill="#FFFFFF" d="M639.297,38.08h-8.278l-3.29-8.56h-15.063l-3.11,8.56h-8.071l14.677-37.684h8.046L639.297,38.08z
	 M625.287,23.171l-5.192-13.984l-5.089,13.984H625.287z"/>
<path fill="#FFFFFF" d="M642.742,10.781h6.657v3.728c2.382-2.896,5.219-4.344,8.509-4.344c1.748,0,3.265,0.36,4.55,1.08
	s2.339,1.808,3.161,3.265c1.2-1.457,2.494-2.545,3.882-3.265c1.389-0.72,2.87-1.08,4.447-1.08c2.005,0,3.701,0.407,5.09,1.221
	c1.388,0.814,2.425,2.009,3.11,3.585c0.496,1.166,0.745,3.051,0.745,5.655V38.08h-7.224V22.477c0-2.708-0.248-4.456-0.745-5.244
	c-0.668-1.028-1.696-1.542-3.085-1.542c-1.011,0-1.962,0.308-2.853,0.925c-0.892,0.617-1.534,1.521-1.928,2.712
	c-0.395,1.191-0.592,3.072-0.592,5.642v13.11h-7.223V23.12c0-2.656-0.129-4.37-0.386-5.141c-0.258-0.771-0.656-1.345-1.195-1.722
	c-0.54-0.377-1.272-0.565-2.198-0.565c-1.114,0-2.116,0.3-3.008,0.899c-0.891,0.6-1.529,1.465-1.915,2.596
	c-0.385,1.131-0.578,3.008-0.578,5.629V38.08h-7.223V10.781H642.742z"/>
<path fill="#FFFFFF" d="M705.9,29.392l7.197,1.208c-0.926,2.64-2.387,4.649-4.383,6.028c-1.997,1.379-4.494,2.069-7.493,2.069
	c-4.747,0-8.261-1.55-10.539-4.652c-1.8-2.485-2.699-5.621-2.699-9.408c0-4.524,1.183-8.067,3.547-10.629
	c2.365-2.562,5.355-3.843,8.972-3.843c4.062,0,7.266,1.341,9.613,4.023c2.348,2.682,3.471,6.791,3.368,12.326h-18.097
	c0.051,2.143,0.634,3.809,1.748,5c1.113,1.191,2.502,1.787,4.164,1.787c1.131,0,2.082-0.309,2.854-0.925
	C704.923,31.756,705.506,30.763,705.9,29.392z M706.311,22.091c-0.052-2.09-0.592-3.68-1.62-4.769
	c-1.027-1.088-2.279-1.632-3.753-1.632c-1.576,0-2.879,0.574-3.907,1.722c-1.027,1.148-1.533,2.708-1.517,4.678h10.797V22.091z"/>
<path fill="#FFFFFF" d="M726.284,38.08h-7.223V10.781h6.709v3.882c1.147-1.833,2.181-3.042,3.097-3.625
	c0.917-0.583,1.958-0.874,3.124-0.874c1.645,0,3.229,0.454,4.755,1.362l-2.236,6.298c-1.217-0.788-2.348-1.183-3.393-1.183
	c-1.012,0-1.868,0.279-2.571,0.835c-0.702,0.557-1.255,1.564-1.657,3.021c-0.403,1.457-0.604,4.507-0.604,9.151L726.284,38.08
	L726.284,38.08z"/>
<path fill="#FFFFFF" d="M739.856,7.08V0.396h7.224V7.08H739.856z M739.856,38.08V10.781h7.224V38.08H739.856z"/>
<path fill="#FFFFFF" d="M778.286,18.853l-7.12,1.285c-0.24-1.422-0.784-2.493-1.633-3.213s-1.949-1.08-3.303-1.08
	c-1.8,0-3.235,0.622-4.306,1.864c-1.071,1.243-1.606,3.32-1.606,6.233c0,3.239,0.543,5.527,1.632,6.864
	c1.088,1.336,2.549,2.005,4.383,2.005c1.371,0,2.493-0.39,3.367-1.169s1.491-2.121,1.851-4.023l7.095,1.208
	c-0.736,3.256-2.15,5.715-4.241,7.377c-2.091,1.663-4.893,2.493-8.405,2.493c-3.993,0-7.177-1.259-9.55-3.778
	c-2.374-2.519-3.561-6.006-3.561-10.462c0-4.507,1.191-8.016,3.573-10.526s5.604-3.766,9.665-3.766c3.325,0,5.968,0.716,7.931,2.146
	C776.019,13.742,777.429,15.922,778.286,18.853z"/>
<path fill="#FFFFFF" d="M789.159,19.109l-6.555-1.182c0.736-2.639,2.005-4.593,3.805-5.861c1.799-1.268,4.473-1.902,8.02-1.902
	c3.222,0,5.621,0.381,7.197,1.144c1.577,0.763,2.687,1.731,3.329,2.904c0.643,1.174,0.964,3.329,0.964,6.465l-0.077,8.431
	c0,2.399,0.116,4.169,0.348,5.308c0.23,1.14,0.663,2.361,1.298,3.663h-7.146c-0.188-0.479-0.42-1.191-0.693-2.134
	c-0.12-0.428-0.206-0.71-0.258-0.848c-1.233,1.2-2.554,2.1-3.958,2.699c-1.405,0.6-2.905,0.899-4.499,0.899
	c-2.811,0-5.025-0.762-6.645-2.288c-1.619-1.525-2.429-3.453-2.429-5.784c0-1.542,0.368-2.917,1.104-4.125
	c0.737-1.208,1.77-2.134,3.098-2.776s3.243-1.204,5.745-1.684c3.376-0.634,5.715-1.225,7.018-1.774v-0.72
	c0-1.388-0.343-2.377-1.028-2.969s-1.979-0.887-3.881-0.887c-1.285,0-2.288,0.253-3.008,0.758
	C790.188,16.951,789.604,17.841,789.159,19.109z M798.824,24.97c-0.925,0.309-2.391,0.677-4.396,1.105
	c-2.005,0.429-3.315,0.848-3.933,1.26c-0.942,0.668-1.414,1.517-1.414,2.544c0,1.012,0.377,1.886,1.131,2.622
	c0.754,0.737,1.714,1.105,2.879,1.105c1.303,0,2.545-0.428,3.728-1.285c0.874-0.651,1.448-1.448,1.723-2.391
	c0.188-0.617,0.282-1.791,0.282-3.522L798.824,24.97L798.824,24.97z"/>
<path fill="#FFFFFF" d="M837.871,38.08h-7.224V24.148c0-2.947-0.154-4.854-0.463-5.72c-0.309-0.865-0.81-1.538-1.503-2.018
	c-0.694-0.48-1.53-0.72-2.507-0.72c-1.251,0-2.374,0.343-3.367,1.028c-0.994,0.686-1.676,1.594-2.044,2.725
	s-0.553,3.222-0.553,6.272v12.364h-7.223V10.781h6.709v4.01c2.382-3.084,5.381-4.627,8.997-4.627c1.594,0,3.05,0.287,4.369,0.861
	c1.32,0.574,2.318,1.307,2.995,2.198s1.147,1.902,1.414,3.033c0.266,1.131,0.398,2.75,0.398,4.858V38.08H837.871z"/>
<path fill="#FFFFFF" d="M639.297,101.253h-8.278l-3.29-8.56h-15.063l-3.11,8.56h-8.071l14.678-37.684h8.046L639.297,101.253z
	 M625.287,86.344l-5.192-13.984l-5.089,13.984H625.287z"/>
<path fill="#FFFFFF" d="M640.736,93.465l7.249-1.105c0.309,1.405,0.935,2.472,1.877,3.2c0.942,0.729,2.262,1.093,3.959,1.093
	c1.867,0,3.272-0.343,4.215-1.028c0.634-0.479,0.951-1.122,0.951-1.928c0-0.548-0.171-1.002-0.514-1.362
	c-0.36-0.342-1.166-0.659-2.416-0.951c-5.827-1.285-9.521-2.458-11.079-3.521c-2.159-1.474-3.239-3.521-3.239-6.144
	c0-2.365,0.934-4.353,2.802-5.963s4.764-2.417,8.688-2.417c3.735,0,6.512,0.608,8.329,1.825c1.815,1.217,3.067,3.016,3.753,5.398
	l-6.813,1.26c-0.291-1.063-0.844-1.876-1.658-2.442c-0.813-0.565-1.975-0.848-3.482-0.848c-1.902,0-3.265,0.266-4.088,0.797
	c-0.548,0.377-0.822,0.866-0.822,1.465c0,0.514,0.24,0.951,0.72,1.311c0.651,0.48,2.9,1.157,6.748,2.031
	c3.847,0.874,6.533,1.945,8.059,3.213c1.508,1.285,2.262,3.076,2.262,5.373c0,2.502-1.045,4.653-3.136,6.452
	s-5.185,2.699-9.279,2.699c-3.72,0-6.662-0.753-8.83-2.262C642.823,98.101,641.405,96.053,640.736,93.465z"/>
<path fill="#FFFFFF" d="M670.015,93.465l7.249-1.105c0.309,1.405,0.935,2.472,1.877,3.2c0.942,0.729,2.262,1.093,3.959,1.093
	c1.867,0,3.272-0.343,4.215-1.028c0.634-0.479,0.951-1.122,0.951-1.928c0-0.548-0.171-1.002-0.514-1.362
	c-0.36-0.342-1.166-0.659-2.416-0.951c-5.827-1.285-9.521-2.458-11.079-3.521c-2.159-1.474-3.239-3.521-3.239-6.144
	c0-2.365,0.934-4.353,2.802-5.963s4.764-2.417,8.688-2.417c3.735,0,6.512,0.608,8.329,1.825c1.815,1.217,3.067,3.016,3.753,5.398
	l-6.813,1.26c-0.291-1.063-0.844-1.876-1.658-2.442c-0.813-0.565-1.975-0.848-3.482-0.848c-1.902,0-3.265,0.266-4.088,0.797
	c-0.548,0.377-0.822,0.866-0.822,1.465c0,0.514,0.24,0.951,0.72,1.311c0.651,0.48,2.9,1.157,6.748,2.031
	c3.847,0.874,6.533,1.945,8.059,3.213c1.508,1.285,2.262,3.076,2.262,5.373c0,2.502-1.045,4.653-3.136,6.452
	s-5.185,2.699-9.279,2.699c-3.72,0-6.662-0.753-8.83-2.262C672.102,98.101,670.684,96.053,670.015,93.465z"/>
<path fill="#FFFFFF" d="M700.167,87.218c0-2.399,0.592-4.721,1.774-6.966s2.857-3.958,5.025-5.141
	c2.167-1.182,4.588-1.773,7.262-1.773c4.13,0,7.514,1.341,10.153,4.023c2.639,2.682,3.959,6.071,3.959,10.167
	c0,4.13-1.333,7.553-3.997,10.269c-2.665,2.716-6.02,4.074-10.064,4.074c-2.502,0-4.888-0.565-7.158-1.696
	c-2.271-1.131-3.998-2.789-5.18-4.974C700.759,93.015,700.167,90.354,700.167,87.218z M707.57,87.604
	c0,2.708,0.643,4.781,1.928,6.221c1.286,1.439,2.87,2.159,4.756,2.159c1.885,0,3.466-0.72,4.743-2.159
	c1.276-1.439,1.915-3.53,1.915-6.272c0-2.673-0.639-4.729-1.915-6.169c-1.277-1.439-2.858-2.159-4.743-2.159
	c-1.886,0-3.47,0.72-4.756,2.159C708.213,82.823,707.57,84.896,707.57,87.604z"/>
<path fill="#FFFFFF" d="M757.799,82.026l-7.12,1.285c-0.24-1.422-0.784-2.493-1.633-3.213c-0.849-0.72-1.949-1.08-3.303-1.08
	c-1.8,0-3.235,0.622-4.306,1.864c-1.071,1.243-1.606,3.32-1.606,6.233c0,3.239,0.543,5.527,1.632,6.864
	c1.088,1.336,2.549,2.005,4.383,2.005c1.371,0,2.493-0.39,3.367-1.169s1.491-2.121,1.851-4.023L758.159,92
	c-0.736,3.256-2.15,5.715-4.241,7.377c-2.091,1.663-4.893,2.493-8.405,2.493c-3.993,0-7.177-1.259-9.55-3.778
	c-2.374-2.519-3.561-6.006-3.561-10.462c0-4.507,1.191-8.016,3.573-10.526s5.604-3.766,9.665-3.766c3.325,0,5.968,0.716,7.931,2.146
	C755.532,76.915,756.941,79.095,757.799,82.026z"/>
<path fill="#FFFFFF" d="M763.273,70.253v-6.684h7.224v6.684H763.273z M763.273,101.253V73.954h7.224v27.299
	C770.497,101.253,763.273,101.253,763.273,101.253z"/>
<path fill="#FFFFFF" d="M783.299,82.283l-6.555-1.182c0.736-2.639,2.005-4.593,3.805-5.861c1.799-1.268,4.473-1.902,8.02-1.902
	c3.222,0,5.621,0.381,7.197,1.144c1.577,0.763,2.687,1.731,3.329,2.904c0.643,1.174,0.964,3.329,0.964,6.465l-0.077,8.431
	c0,2.399,0.116,4.169,0.348,5.308c0.23,1.14,0.663,2.361,1.298,3.663h-7.146c-0.188-0.479-0.42-1.191-0.693-2.134
	c-0.12-0.428-0.206-0.71-0.258-0.848c-1.233,1.2-2.554,2.1-3.958,2.699c-1.405,0.6-2.905,0.899-4.499,0.899
	c-2.811,0-5.025-0.762-6.645-2.288C776.81,98.056,776,96.128,776,93.797c0-1.542,0.368-2.917,1.104-4.125
	c0.737-1.208,1.77-2.134,3.098-2.776s3.243-1.204,5.745-1.684c3.376-0.634,5.715-1.225,7.018-1.774v-0.72
	c0-1.388-0.343-2.377-1.028-2.969s-1.979-0.887-3.881-0.887c-1.285,0-2.288,0.253-3.008,0.758S783.744,81.015,783.299,82.283z
	 M792.964,88.144c-0.925,0.309-2.391,0.677-4.396,1.105c-2.005,0.429-3.315,0.848-3.933,1.26c-0.942,0.668-1.414,1.517-1.414,2.544
	c0,1.012,0.377,1.886,1.131,2.622c0.754,0.737,1.714,1.105,2.879,1.105c1.303,0,2.545-0.428,3.728-1.285
	c0.874-0.651,1.448-1.448,1.723-2.391c0.188-0.617,0.282-1.791,0.282-3.522L792.964,88.144L792.964,88.144z"/>
<path fill="#FFFFFF" d="M819.697,73.954v5.758h-4.936v11.002c0,2.228,0.048,3.526,0.142,3.894c0.094,0.369,0.309,0.673,0.643,0.913
	c0.334,0.24,0.741,0.36,1.222,0.36c0.668,0,1.636-0.231,2.904-0.694l0.617,5.604c-1.68,0.72-3.582,1.08-5.707,1.08
	c-1.303,0-2.477-0.218-3.521-0.655c-1.046-0.437-1.813-1.002-2.301-1.697c-0.488-0.694-0.827-1.632-1.016-2.814
	c-0.153-0.839-0.23-2.536-0.23-5.09V79.712h-3.316v-5.758h3.316V68.53l7.248-4.215v9.639H819.697z"/>
<path fill="#FFFFFF" d="M824.709,70.253v-6.684h7.224v6.684H824.709z M824.709,101.253V73.954h7.224v27.299
	C831.933,101.253,824.709,101.253,824.709,101.253z"/>
<path fill="#FFFFFF" d="M837.665,87.218c0-2.399,0.592-4.721,1.774-6.966s2.857-3.958,5.025-5.141
	c2.167-1.182,4.588-1.773,7.262-1.773c4.13,0,7.514,1.341,10.153,4.023c2.639,2.682,3.959,6.071,3.959,10.167
	c0,4.13-1.333,7.553-3.997,10.269c-2.665,2.716-6.02,4.074-10.064,4.074c-2.502,0-4.888-0.565-7.158-1.696
	c-2.271-1.131-3.998-2.789-5.18-4.974C838.257,93.015,837.665,90.354,837.665,87.218z M845.068,87.604
	c0,2.708,0.643,4.781,1.928,6.221c1.286,1.439,2.87,2.159,4.756,2.159c1.885,0,3.466-0.72,4.743-2.159
	c1.276-1.439,1.915-3.53,1.915-6.272c0-2.673-0.639-4.729-1.915-6.169c-1.277-1.439-2.858-2.159-4.743-2.159
	c-1.886,0-3.47,0.72-4.756,2.159C845.711,82.823,845.068,84.896,845.068,87.604z"/>
<path fill="#FFFFFF" d="M896.325,101.253h-7.224V87.321c0-2.947-0.154-4.854-0.463-5.72c-0.309-0.865-0.81-1.538-1.503-2.018
	c-0.694-0.48-1.53-0.72-2.507-0.72c-1.251,0-2.374,0.343-3.367,1.028c-0.994,0.686-1.676,1.594-2.044,2.725
	s-0.553,3.222-0.553,6.272v12.364h-7.223V73.954h6.709v4.01c2.382-3.084,5.381-4.627,8.997-4.627c1.594,0,3.05,0.287,4.369,0.861
	c1.32,0.574,2.318,1.307,2.995,2.198s1.147,1.902,1.414,3.033c0.266,1.131,0.398,2.75,0.398,4.858v16.966H896.325z"/>
<path fill="#FFFFFF" d="M916.606,87.218c0-2.399,0.592-4.721,1.774-6.966s2.857-3.958,5.025-5.141
	c2.167-1.182,4.588-1.773,7.262-1.773c4.13,0,7.514,1.341,10.153,4.023c2.639,2.682,3.959,6.071,3.959,10.167
	c0,4.13-1.333,7.553-3.997,10.269c-2.665,2.716-6.02,4.074-10.064,4.074c-2.502,0-4.888-0.565-7.158-1.696
	c-2.271-1.131-3.998-2.789-5.18-4.974C917.198,93.015,916.606,90.354,916.606,87.218z M924.01,87.604
	c0,2.708,0.643,4.781,1.928,6.221c1.286,1.439,2.87,2.159,4.756,2.159c1.885,0,3.466-0.72,4.743-2.159
	c1.276-1.439,1.915-3.53,1.915-6.272c0-2.673-0.639-4.729-1.915-6.169c-1.277-1.439-2.858-2.159-4.743-2.159
	c-1.886,0-3.47,0.72-4.756,2.159C924.652,82.823,924.01,84.896,924.01,87.604z"/>
<path fill="#FFFFFF" d="M947.273,73.954h4.01v-2.056c0-2.296,0.244-4.01,0.732-5.141s1.389-2.052,2.699-2.763
	s2.969-1.067,4.974-1.067c2.057,0,4.07,0.309,6.041,0.925l-0.977,5.038c-1.148-0.274-2.254-0.411-3.316-0.411
	c-1.045,0-1.795,0.244-2.249,0.732c-0.454,0.489-0.681,1.427-0.681,2.815v1.928h5.397v5.681h-5.397v21.618h-7.224V79.635h-4.01
	v-5.681H947.273z"/>
<path fill="#FFFFFF" d="M605.083,164.427v-37.684h7.609v37.684H605.083z"/>
<path fill="#FFFFFF" d="M644.721,164.427h-7.224v-13.933c0-2.947-0.154-4.854-0.463-5.719c-0.309-0.865-0.81-1.538-1.503-2.018
	c-0.694-0.48-1.53-0.72-2.507-0.72c-1.251,0-2.374,0.343-3.367,1.028c-0.994,0.686-1.676,1.594-2.044,2.725
	c-0.368,1.131-0.553,3.222-0.553,6.272v12.364h-7.223v-27.299h6.709v4.01c2.382-3.084,5.381-4.627,8.997-4.627
	c1.594,0,3.05,0.287,4.369,0.861c1.32,0.574,2.318,1.307,2.995,2.198s1.147,1.902,1.414,3.033c0.266,1.131,0.398,2.75,0.398,4.858
	v16.967H644.721z"/>
<path fill="#FFFFFF" d="M677.084,164.427h-6.709v-4.01c-1.114,1.56-2.429,2.721-3.945,3.482c-1.517,0.763-3.046,1.145-4.589,1.145
	c-3.136,0-5.822-1.264-8.059-3.792c-2.236-2.527-3.354-6.054-3.354-10.577c0-4.627,1.088-8.145,3.265-10.552
	c2.176-2.408,4.927-3.612,8.251-3.612c3.051,0,5.689,1.269,7.918,3.804v-13.572h7.223v37.684H677.084z M657.806,150.186
	c0,2.914,0.402,5.021,1.208,6.324c1.165,1.885,2.793,2.827,4.884,2.827c1.662,0,3.076-0.707,4.241-2.12
	c1.165-1.414,1.748-3.526,1.748-6.337c0-3.136-0.565-5.394-1.696-6.773s-2.579-2.069-4.345-2.069c-1.714,0-3.148,0.681-4.306,2.043
	C658.384,145.443,657.806,147.479,657.806,150.186z"/>
<path fill="#FFFFFF" d="M684.204,133.426v-6.684h7.224v6.684H684.204z M684.204,164.427v-27.299h7.224v27.299H684.204z"/>
<path fill="#FFFFFF" d="M706.336,164.427l-11.001-27.299h7.583l5.141,13.932l1.491,4.653c0.394-1.183,0.643-1.962,0.745-2.34
	c0.24-0.771,0.497-1.542,0.771-2.313l5.192-13.932h7.429l-10.848,27.299H706.336z"/>
<path fill="#FFFFFF" d="M728.108,133.426v-6.684h7.224v6.684H728.108z M728.108,164.427v-27.299h7.224v27.299H728.108z"/>
<path fill="#FFFFFF" d="M767.772,164.427h-6.709v-4.01c-1.114,1.56-2.429,2.721-3.945,3.482c-1.517,0.763-3.046,1.145-4.589,1.145
	c-3.136,0-5.822-1.264-8.059-3.792c-2.236-2.527-3.354-6.054-3.354-10.577c0-4.627,1.088-8.145,3.265-10.552
	c2.176-2.408,4.927-3.612,8.251-3.612c3.051,0,5.689,1.269,7.918,3.804v-13.572h7.223v37.684H767.772z M748.494,150.186
	c0,2.914,0.402,5.021,1.208,6.324c1.165,1.885,2.793,2.827,4.884,2.827c1.662,0,3.076-0.707,4.241-2.12
	c1.165-1.414,1.748-3.526,1.748-6.337c0-3.136-0.565-5.394-1.696-6.773s-2.579-2.069-4.345-2.069c-1.714,0-3.148,0.681-4.306,2.043
	C749.072,145.443,748.494,147.479,748.494,150.186z"/>
<path fill="#FFFFFF" d="M792.861,164.427v-4.087c-0.994,1.456-2.301,2.604-3.92,3.444c-1.62,0.84-3.329,1.26-5.129,1.26
	c-1.834,0-3.479-0.403-4.936-1.208c-1.456-0.806-2.511-1.937-3.161-3.394c-0.651-1.456-0.978-3.47-0.978-6.041v-17.274h7.224v12.544
	c0,3.839,0.133,6.191,0.398,7.056c0.266,0.866,0.749,1.552,1.452,2.057c0.703,0.506,1.594,0.759,2.674,0.759
	c1.233,0,2.339-0.339,3.315-1.016c0.978-0.677,1.646-1.517,2.005-2.52c0.36-1.002,0.54-3.457,0.54-7.364v-11.516h7.224v27.299
	h-6.708V164.427z"/>
<path fill="#FFFFFF" d="M812.448,145.456l-6.555-1.182c0.736-2.639,2.005-4.593,3.805-5.861c1.799-1.268,4.473-1.902,8.02-1.902
	c3.222,0,5.621,0.381,7.197,1.144c1.577,0.763,2.687,1.731,3.329,2.904c0.643,1.174,0.964,3.329,0.964,6.465l-0.077,8.432
	c0,2.399,0.116,4.168,0.348,5.308c0.23,1.14,0.663,2.361,1.298,3.663h-7.146c-0.188-0.479-0.42-1.19-0.693-2.134
	c-0.12-0.428-0.206-0.711-0.258-0.848c-1.233,1.199-2.554,2.099-3.958,2.698c-1.405,0.601-2.905,0.9-4.499,0.9
	c-2.811,0-5.025-0.763-6.645-2.288s-2.429-3.453-2.429-5.783c0-1.543,0.368-2.918,1.104-4.126c0.737-1.208,1.77-2.134,3.098-2.776
	s3.243-1.204,5.745-1.684c3.376-0.634,5.715-1.225,7.018-1.774v-0.72c0-1.388-0.343-2.377-1.028-2.969s-1.979-0.887-3.881-0.887
	c-1.285,0-2.288,0.253-3.008,0.758S812.894,144.188,812.448,145.456z M822.113,151.317c-0.925,0.308-2.391,0.677-4.396,1.104
	c-2.005,0.429-3.315,0.849-3.933,1.26c-0.942,0.669-1.414,1.517-1.414,2.545c0,1.012,0.377,1.886,1.131,2.622
	c0.754,0.737,1.714,1.105,2.879,1.105c1.303,0,2.545-0.429,3.728-1.285c0.874-0.651,1.448-1.448,1.723-2.391
	c0.188-0.617,0.282-1.791,0.282-3.521L822.113,151.317L822.113,151.317z"/>
<path fill="#FFFFFF" d="M836.328,164.427v-37.684h7.224v37.684H836.328z"/>
<path fill="#FFFFFF" d="M605.083,227.601v-37.685h7.609v37.685H605.083z"/>
<path fill="#FFFFFF" d="M644.721,227.601h-7.224v-13.933c0-2.947-0.154-4.854-0.463-5.719s-0.81-1.538-1.503-2.019
	c-0.694-0.479-1.53-0.72-2.507-0.72c-1.251,0-2.374,0.344-3.367,1.028c-0.994,0.686-1.676,1.594-2.044,2.725
	c-0.368,1.132-0.553,3.223-0.553,6.272v12.364h-7.223V200.3h6.709v4.01c2.382-3.085,5.381-4.627,8.997-4.627
	c1.594,0,3.05,0.287,4.369,0.861c1.32,0.574,2.318,1.307,2.995,2.197c0.677,0.892,1.147,1.902,1.414,3.033
	c0.266,1.132,0.398,2.751,0.398,4.858v16.969H644.721z"/>
<path fill="#FFFFFF" d="M659.553,227.601l-11.001-27.299h7.583l5.141,13.932l1.491,4.653c0.394-1.183,0.643-1.962,0.745-2.34
	c0.24-0.771,0.497-1.542,0.771-2.313l5.192-13.932h7.429l-10.848,27.299H659.553z"/>
<path fill="#FFFFFF" d="M697.135,218.912l7.197,1.208c-0.926,2.64-2.387,4.648-4.383,6.028c-1.997,1.38-4.494,2.069-7.493,2.069
	c-4.747,0-8.261-1.551-10.539-4.653c-1.8-2.484-2.699-5.62-2.699-9.408c0-4.523,1.183-8.066,3.547-10.629
	c2.365-2.562,5.355-3.843,8.972-3.843c4.062,0,7.266,1.341,9.613,4.022c2.348,2.683,3.471,6.791,3.368,12.326h-18.097
	c0.051,2.143,0.634,3.809,1.748,5c1.113,1.191,2.502,1.786,4.164,1.786c1.131,0,2.082-0.309,2.854-0.926
	C696.157,221.277,696.74,220.283,697.135,218.912z M697.546,211.612c-0.052-2.091-0.592-3.681-1.62-4.769
	c-1.027-1.088-2.279-1.633-3.753-1.633c-1.576,0-2.879,0.574-3.907,1.723c-1.027,1.148-1.533,2.708-1.517,4.679L697.546,211.612
	L697.546,211.612z"/>
<path fill="#FFFFFF" d="M708.059,219.812l7.249-1.105c0.309,1.406,0.935,2.473,1.877,3.201s2.262,1.092,3.959,1.092
	c1.867,0,3.272-0.343,4.215-1.028c0.634-0.479,0.951-1.122,0.951-1.928c0-0.548-0.171-1.002-0.514-1.362
	c-0.36-0.343-1.166-0.659-2.416-0.951c-5.827-1.285-9.521-2.459-11.079-3.521c-2.159-1.474-3.239-3.521-3.239-6.144
	c0-2.365,0.934-4.353,2.802-5.964c1.868-1.61,4.764-2.416,8.688-2.416c3.735,0,6.512,0.608,8.329,1.825
	c1.815,1.217,3.067,3.017,3.753,5.398l-6.813,1.259c-0.291-1.063-0.844-1.876-1.658-2.441c-0.813-0.565-1.975-0.849-3.482-0.849
	c-1.902,0-3.265,0.266-4.088,0.797c-0.548,0.377-0.822,0.865-0.822,1.465c0,0.515,0.24,0.951,0.72,1.312
	c0.651,0.479,2.9,1.156,6.748,2.03c3.847,0.874,6.533,1.945,8.059,3.214c1.508,1.285,2.262,3.076,2.262,5.372
	c0,2.502-1.045,4.652-3.136,6.452c-2.091,1.799-5.185,2.699-9.279,2.699c-3.72,0-6.662-0.754-8.83-2.263
	C710.145,224.447,708.727,222.399,708.059,219.812z"/>
<path fill="#FFFFFF" d="M752.4,200.302v5.758h-4.936v11.002c0,2.228,0.048,3.526,0.142,3.895s0.309,0.673,0.643,0.912
	c0.334,0.24,0.741,0.36,1.222,0.36c0.668,0,1.636-0.231,2.904-0.694l0.617,5.604c-1.68,0.72-3.582,1.08-5.707,1.08
	c-1.303,0-2.477-0.219-3.521-0.655c-1.046-0.438-1.813-1.003-2.301-1.697c-0.488-0.693-0.827-1.632-1.016-2.814
	c-0.153-0.84-0.23-2.536-0.23-5.09v-11.901h-3.316v-5.758h3.316v-5.424l7.248-4.216v9.64h4.935V200.302z"/>
<path fill="#FFFFFF" d="M755.742,213.565c0-2.399,0.592-4.721,1.774-6.966c1.182-2.245,2.857-3.959,5.025-5.142
	c2.167-1.183,4.588-1.773,7.262-1.773c4.13,0,7.514,1.341,10.153,4.022c2.639,2.683,3.959,6.071,3.959,10.167
	c0,4.13-1.333,7.554-3.997,10.27c-2.665,2.716-6.02,4.074-10.064,4.074c-2.502,0-4.888-0.565-7.158-1.697
	c-2.271-1.131-3.998-2.789-5.18-4.974C756.334,219.362,755.742,216.701,755.742,213.565z M763.145,213.951
	c0,2.708,0.643,4.781,1.928,6.221c1.286,1.439,2.87,2.159,4.756,2.159c1.885,0,3.466-0.72,4.743-2.159
	c1.276-1.439,1.915-3.53,1.915-6.272c0-2.673-0.639-4.729-1.915-6.169c-1.277-1.439-2.858-2.159-4.743-2.159
	c-1.886,0-3.47,0.72-4.756,2.159C763.788,209.17,763.145,211.243,763.145,213.951z"/>
<path fill="#FFFFFF" d="M796.485,227.601h-7.223v-27.299h6.709v3.881c1.147-1.833,2.181-3.041,3.097-3.624
	c0.917-0.582,1.958-0.874,3.124-0.874c1.645,0,3.229,0.454,4.755,1.362l-2.236,6.298c-1.217-0.788-2.348-1.183-3.393-1.183
	c-1.012,0-1.868,0.279-2.571,0.836c-0.702,0.557-1.255,1.563-1.657,3.021c-0.403,1.456-0.604,4.507-0.604,9.15L796.485,227.601
	L796.485,227.601z"/>
<path fill="#FFFFFF" d="M807.513,219.812l7.249-1.105c0.309,1.406,0.935,2.473,1.877,3.201s2.262,1.092,3.959,1.092
	c1.867,0,3.272-0.343,4.215-1.028c0.634-0.479,0.951-1.122,0.951-1.928c0-0.548-0.171-1.002-0.514-1.362
	c-0.36-0.343-1.166-0.659-2.416-0.951c-5.827-1.285-9.521-2.459-11.079-3.521c-2.159-1.474-3.239-3.521-3.239-6.144
	c0-2.365,0.934-4.353,2.802-5.964c1.868-1.61,4.764-2.416,8.688-2.416c3.735,0,6.512,0.608,8.329,1.825
	c1.815,1.217,3.067,3.017,3.753,5.398l-6.813,1.259c-0.291-1.063-0.844-1.876-1.658-2.441c-0.813-0.565-1.975-0.849-3.482-0.849
	c-1.902,0-3.265,0.266-4.088,0.797c-0.548,0.377-0.822,0.865-0.822,1.465c0,0.515,0.24,0.951,0.72,1.312
	c0.651,0.479,2.9,1.156,6.748,2.03c3.847,0.874,6.533,1.945,8.059,3.214c1.508,1.285,2.262,3.076,2.262,5.372
	c0,2.502-1.045,4.652-3.136,6.452c-2.091,1.799-5.185,2.699-9.279,2.699c-3.72,0-6.662-0.754-8.83-2.263
	C809.6,224.447,808.182,222.399,807.513,219.812z"/>
</svg>
